<mxfile host="app.diagrams.net" modified="2021-05-07T07:23:49.278Z" agent="5.0 (Windows NT 10.0; Win64; x64) AppleWebKit/537.36 (KHTML, like Gecko) Chrome/90.0.4430.93 Safari/537.36" etag="71bJjAVyzn_SuFVq3B4Y" version="14.6.9" type="github">
  <diagram id="LDHPVA9tsnXgw3kA8gWP" name="Page-1">
    <mxGraphModel dx="734" dy="674" grid="1" gridSize="10" guides="1" tooltips="1" connect="1" arrows="1" fold="1" page="1" pageScale="1" pageWidth="1169" pageHeight="827" math="0" shadow="0">
      <root>
        <mxCell id="0" />
        <mxCell id="1" parent="0" />
        <mxCell id="XBLnhtw9XQWaBoh4cR1--1" value="Flight Controller" style="rounded=0;whiteSpace=wrap;html=1;fillColor=#e1d5e7;strokeColor=#9673a6;fontStyle=1" vertex="1" parent="1">
          <mxGeometry x="850" y="414" width="120" height="60" as="geometry" />
        </mxCell>
        <mxCell id="XBLnhtw9XQWaBoh4cR1--2" style="edgeStyle=orthogonalEdgeStyle;rounded=0;orthogonalLoop=1;jettySize=auto;html=1;exitX=1;exitY=0.5;exitDx=0;exitDy=0;entryX=0;entryY=0.5;entryDx=0;entryDy=0;startArrow=classic;startFill=1;" edge="1" parent="1" source="XBLnhtw9XQWaBoh4cR1--5" target="XBLnhtw9XQWaBoh4cR1--1">
          <mxGeometry relative="1" as="geometry" />
        </mxCell>
        <mxCell id="XBLnhtw9XQWaBoh4cR1--3" value="UART" style="edgeLabel;html=1;align=center;verticalAlign=middle;resizable=0;points=[];" vertex="1" connectable="0" parent="XBLnhtw9XQWaBoh4cR1--2">
          <mxGeometry x="0.3252" y="3" relative="1" as="geometry">
            <mxPoint x="-13" y="-7" as="offset" />
          </mxGeometry>
        </mxCell>
        <mxCell id="XBLnhtw9XQWaBoh4cR1--5" value="Onboard Computer" style="rounded=0;whiteSpace=wrap;html=1;fillColor=#e1d5e7;strokeColor=#9673a6;fontStyle=1" vertex="1" parent="1">
          <mxGeometry x="660" y="414" width="120" height="60" as="geometry" />
        </mxCell>
        <mxCell id="XBLnhtw9XQWaBoh4cR1--6" style="edgeStyle=orthogonalEdgeStyle;rounded=0;orthogonalLoop=1;jettySize=auto;html=1;entryX=0.5;entryY=1;entryDx=0;entryDy=0;dashed=1;startArrow=none;startFill=0;endArrow=none;endFill=0;exitX=0.5;exitY=0;exitDx=0;exitDy=0;" edge="1" parent="1" source="XBLnhtw9XQWaBoh4cR1--18" target="XBLnhtw9XQWaBoh4cR1--5">
          <mxGeometry relative="1" as="geometry">
            <mxPoint x="850" y="524" as="sourcePoint" />
          </mxGeometry>
        </mxCell>
        <mxCell id="XBLnhtw9XQWaBoh4cR1--7" style="edgeStyle=orthogonalEdgeStyle;rounded=0;orthogonalLoop=1;jettySize=auto;html=1;entryX=0.25;entryY=1;entryDx=0;entryDy=0;dashed=1;startArrow=none;startFill=0;endArrow=none;endFill=0;" edge="1" parent="1" source="XBLnhtw9XQWaBoh4cR1--18" target="XBLnhtw9XQWaBoh4cR1--1">
          <mxGeometry relative="1" as="geometry">
            <mxPoint x="780" y="554" as="sourcePoint" />
          </mxGeometry>
        </mxCell>
        <mxCell id="XBLnhtw9XQWaBoh4cR1--34" value="Control the drone" style="edgeLabel;html=1;align=center;verticalAlign=middle;resizable=0;points=[];" vertex="1" connectable="0" parent="XBLnhtw9XQWaBoh4cR1--7">
          <mxGeometry x="-0.1534" relative="1" as="geometry">
            <mxPoint as="offset" />
          </mxGeometry>
        </mxCell>
        <mxCell id="XBLnhtw9XQWaBoh4cR1--29" style="edgeStyle=orthogonalEdgeStyle;rounded=0;orthogonalLoop=1;jettySize=auto;html=1;exitX=0.5;exitY=1;exitDx=0;exitDy=0;entryX=0.5;entryY=0;entryDx=0;entryDy=0;dashed=1;endArrow=none;endFill=0;" edge="1" parent="1" source="XBLnhtw9XQWaBoh4cR1--15" target="XBLnhtw9XQWaBoh4cR1--28">
          <mxGeometry relative="1" as="geometry" />
        </mxCell>
        <mxCell id="XBLnhtw9XQWaBoh4cR1--15" value="Android" style="rounded=0;whiteSpace=wrap;html=1;fillColor=#d5e8d4;strokeColor=#82b366;fontStyle=1" vertex="1" parent="1">
          <mxGeometry x="400" y="414" width="120" height="60" as="geometry" />
        </mxCell>
        <mxCell id="XBLnhtw9XQWaBoh4cR1--16" style="edgeStyle=orthogonalEdgeStyle;rounded=0;orthogonalLoop=1;jettySize=auto;html=1;exitX=1;exitY=0.5;exitDx=0;exitDy=0;startArrow=classic;startFill=1;" edge="1" parent="1" source="XBLnhtw9XQWaBoh4cR1--15">
          <mxGeometry relative="1" as="geometry">
            <mxPoint x="790" y="454" as="sourcePoint" />
            <mxPoint x="660" y="444" as="targetPoint" />
          </mxGeometry>
        </mxCell>
        <mxCell id="XBLnhtw9XQWaBoh4cR1--33" value="Read Mission" style="edgeStyle=orthogonalEdgeStyle;rounded=0;orthogonalLoop=1;jettySize=auto;html=1;dashed=1;startArrow=classic;startFill=1;endArrow=none;endFill=0;" edge="1" parent="1" source="XBLnhtw9XQWaBoh4cR1--18" target="XBLnhtw9XQWaBoh4cR1--5">
          <mxGeometry relative="1" as="geometry" />
        </mxCell>
        <mxCell id="XBLnhtw9XQWaBoh4cR1--18" value="MAVSDK" style="rounded=0;whiteSpace=wrap;html=1;fillColor=#dae8fc;strokeColor=#6c8ebf;fontStyle=1;dashed=1;" vertex="1" parent="1">
          <mxGeometry x="660" y="534" width="120" height="60" as="geometry" />
        </mxCell>
        <mxCell id="XBLnhtw9XQWaBoh4cR1--19" value="Radio" style="edgeLabel;html=1;align=center;verticalAlign=middle;resizable=0;points=[];" vertex="1" connectable="0" parent="1">
          <mxGeometry x="594" y="434.0000000000002" as="geometry" />
        </mxCell>
        <mxCell id="XBLnhtw9XQWaBoh4cR1--23" value="" style="shape=image;html=1;verticalAlign=top;verticalLabelPosition=bottom;labelBackgroundColor=#ffffff;imageAspect=0;aspect=fixed;image=https://cdn4.iconfinder.com/data/icons/logos-and-brands/512/267_Python_logo-128.png;dashed=1;" vertex="1" parent="1">
          <mxGeometry x="750" y="555" width="18" height="18" as="geometry" />
        </mxCell>
        <mxCell id="XBLnhtw9XQWaBoh4cR1--28" value="Our GCS App" style="rounded=0;whiteSpace=wrap;html=1;fillColor=#fff2cc;strokeColor=#d6b656;fontStyle=1;dashed=1;" vertex="1" parent="1">
          <mxGeometry x="400" y="534" width="120" height="60" as="geometry" />
        </mxCell>
        <mxCell id="XBLnhtw9XQWaBoh4cR1--32" value="Send Mission" style="edgeStyle=orthogonalEdgeStyle;rounded=0;orthogonalLoop=1;jettySize=auto;html=1;exitX=1;exitY=0.5;exitDx=0;exitDy=0;entryX=0;entryY=0.75;entryDx=0;entryDy=0;dashed=1;endArrow=classic;endFill=1;startArrow=none;startFill=0;" edge="1" parent="1" source="XBLnhtw9XQWaBoh4cR1--28" target="XBLnhtw9XQWaBoh4cR1--5">
          <mxGeometry relative="1" as="geometry">
            <mxPoint x="520" y="680" as="sourcePoint" />
            <Array as="points">
              <mxPoint x="590" y="564" />
              <mxPoint x="590" y="459" />
            </Array>
          </mxGeometry>
        </mxCell>
      </root>
    </mxGraphModel>
  </diagram>
</mxfile>
